<svg width="64" height="64" viewBox="0 0 64 64" fill="none" xmlns="http://www.w3.org/2000/svg">
  <path d="M32 8C32 8 28 12 28 20C28 24 32 28 32 32V36C32 36 36 32 40 32C44 32 48 36 48 40C48 44 44 48 40 48C36 48 32 44 32 40V36" 
        fill="#FFA733" 
        stroke="#FF8C00" 
        stroke-width="2"/>
  <path d="M24 16C24 16 20 20 20 28C20 32 24 36 24 40C24 44 20 48 16 48C12 48 8 44 8 40C8 36 12 32 16 32C20 32 24 28 24 24" 
        fill="#FFA733" 
        stroke="#FF8C00" 
        stroke-width="2"/>
  <path d="M40 24C40 24 44 20 48 20C52 20 56 24 56 28C56 32 52 36 48 36C44 36 40 32 40 28" 
        fill="#FFA733" 
        stroke="#FF8C00" 
        stroke-width="2"/>
  <circle cx="32" cy="16" r="3" fill="#FF8C00"/>
  <circle cx="24" cy="20" r="2.5" fill="#FF8C00"/>
  <circle cx="40" cy="20" r="2.5" fill="#FF8C00"/>
</svg>
